<svg width="100" height="100" viewBox="0 0 100 100" fill="none" xmlns="http://www.w3.org/2000/svg">
<g clip-path="url(#clip0_629_80)">
<path d="M80 0H20C8.9543 0 0 8.9543 0 20V80C0 91.0457 8.9543 100 20 100H80C91.0457 100 100 91.0457 100 80V20C100 8.9543 91.0457 0 80 0Z" fill="url(#paint0_linear_629_80)"/>
<path d="M54.5322 18C36.5632 18 22 32.5488 22 50.5C22 68.4512 36.5632 83 54.5322 83C63.2752 83 71.2177 79.5469 77.0633 73.9355C77.991 73.0469 78.2578 71.6631 77.7368 70.4951C77.2158 69.3271 75.9958 68.6035 74.7123 68.7051C74.0896 68.7559 73.467 68.7812 72.8316 68.7812C59.9203 68.7812 49.449 58.3203 49.449 45.4219C49.449 36.2686 54.7228 28.334 62.4238 24.5C63.5802 23.9287 64.241 22.6846 64.0885 21.4023C63.936 20.1201 62.9957 19.0791 61.7376 18.7998C59.412 18.2793 56.9975 18 54.5322 18Z" fill="url(#paint1_linear_629_80)"/>
</g>
<defs>
<linearGradient id="paint0_linear_629_80" x1="0" y1="0" x2="100" y2="100" gradientUnits="userSpaceOnUse">
<stop stop-color="#121A3A"/>
<stop offset="1" stop-color="#3A2A6A"/>
</linearGradient>
<linearGradient id="paint1_linear_629_80" x1="22" y1="18" x2="22" y2="83" gradientUnits="userSpaceOnUse">
<stop stop-color="#F3F8FF"/>
<stop offset="1" stop-color="#CFE0FF"/>
</linearGradient>
<clipPath id="clip0_629_80">
<rect width="100" height="100" fill="white"/>
</clipPath>
</defs>
</svg>
